<?xml version="1.0" standalone="no"?>
<!DOCTYPE svg PUBLIC "-//W3C//DTD SVG 20010904//EN"
 "http://www.w3.org/TR/2001/REC-SVG-20010904/DTD/svg10.dtd">
<svg version="1.0" xmlns="http://www.w3.org/2000/svg"
 width="700.000000pt" height="700.000000pt" viewBox="0 0 700.000000 700.000000"
 preserveAspectRatio="xMidYMid meet">
<metadata>
Created by potrace 1.14, written by Peter Selinger 2001-2017
</metadata>
<g transform="translate(0.000000,700.000000) scale(0.100000,-0.100000)"
fill="#000000" stroke="none">
<path d="M3289 6926 c-2 -2 -42 -6 -89 -10 -47 -3 -98 -8 -115 -11 -16 -2 -61
-9 -100 -15 -38 -5 -86 -12 -105 -15 -19 -3 -53 -10 -75 -15 -22 -6 -51 -12
-65 -14 -14 -2 -63 -14 -110 -26 -791 -201 -1478 -664 -1961 -1320 -258 -350
-463 -792 -559 -1205 -32 -137 -57 -272 -66 -349 -3 -23 -7 -47 -9 -53 -17
-50 -26 -541 -12 -668 4 -38 10 -92 13 -120 2 -27 7 -61 9 -75 3 -14 7 -41 10
-60 4 -19 10 -53 15 -75 5 -22 11 -58 14 -80 39 -264 199 -691 381 -1010 83
-147 245 -376 363 -515 128 -150 374 -383 543 -513 289 -224 692 -431 1069
-552 63 -20 123 -38 133 -40 10 -2 27 -7 37 -10 22 -7 25 -8 175 -39 66 -14
137 -27 158 -30 90 -14 113 -18 135 -21 119 -20 572 -27 727 -12 120 12 198
21 255 32 14 2 43 7 65 10 67 10 306 66 370 87 33 10 68 21 78 23 25 6 161 53
232 82 361 145 675 331 964 573 150 125 329 302 426 421 132 161 273 361 335
474 18 33 36 65 40 70 11 13 140 272 140 279 0 3 11 29 24 58 13 29 31 73 39
98 8 25 24 68 35 95 49 124 139 492 156 635 3 25 8 68 11 95 17 141 22 240 19
440 -2 121 -5 234 -7 250 -3 17 -8 62 -12 100 -4 39 -9 79 -12 90 -2 11 -12
70 -23 130 -32 182 -109 454 -166 590 -7 17 -21 53 -32 80 -21 54 -75 173 -96
215 -110 212 -258 449 -351 562 -22 26 -22 28 -7 80 23 80 22 333 -1 418 -32
117 -92 223 -176 309 -126 131 -248 194 -436 226 -40 6 -243 7 -275 0 -14 -3
-34 -7 -45 -9 -44 -9 -136 -38 -163 -52 -28 -13 -34 -12 -118 29 -210 104
-492 211 -637 242 -10 2 -27 7 -37 10 -31 10 -50 14 -199 44 -146 30 -177 35
-286 46 -33 4 -71 9 -85 12 -28 5 -535 14 -541 9z m531 -550 c19 -3 55 -8 80
-11 228 -29 484 -95 715 -187 129 -51 185 -79 185 -92 0 -6 -5 -29 -11 -51
-17 -65 -19 -272 -3 -351 41 -216 174 -401 360 -500 56 -30 133 -61 166 -68
94 -19 124 -23 213 -25 114 -2 239 18 327 54 l58 24 35 -52 c20 -29 52 -77 72
-107 50 -76 193 -353 193 -374 0 -9 5 -16 10 -16 6 0 10 -6 10 -14 0 -14 34
-107 52 -140 5 -10 11 -26 13 -35 2 -9 15 -52 29 -96 34 -104 81 -316 96 -430
6 -49 13 -103 16 -120 3 -16 7 -122 9 -235 8 -438 -70 -825 -248 -1220 -114
-253 -238 -451 -439 -695 -70 -84 -278 -286 -379 -367 -232 -186 -488 -336
-754 -443 -159 -65 -392 -134 -535 -160 -246 -44 -315 -50 -575 -50 -191 0
-293 5 -395 20 -14 2 -47 6 -75 10 -89 12 -337 72 -453 110 -176 57 -362 138
-537 235 -176 97 -499 330 -410 296 23 -8 181 -34 265 -43 99 -10 477 -10 560
0 116 15 119 15 225 36 84 17 92 19 192 46 54 15 112 33 128 40 17 7 46 18 65
25 77 29 240 115 334 177 176 117 331 263 455 428 68 90 131 189 131 203 -1 8
-536 317 -549 317 -5 0 -33 -36 -62 -80 -98 -148 -305 -337 -469 -427 -106
-58 -307 -126 -425 -143 -16 -2 -59 -9 -95 -14 -36 -5 -159 -8 -275 -6 -222 4
-322 19 -485 75 -445 154 -732 484 -869 1000 -23 90 -48 231 -56 318 l-5 62
1674 0 1674 0 6 43 c10 70 17 119 21 172 6 65 7 464 1 490 -2 11 -7 49 -11 85
-4 36 -9 74 -11 85 -2 11 -6 32 -9 47 -40 216 -137 482 -241 660 -122 208
-268 368 -499 546 -120 92 -385 215 -575 265 -222 60 -319 72 -580 72 -222 -1
-307 -7 -442 -34 -49 -10 -88 -15 -87 -12 2 26 312 235 484 326 220 117 568
243 774 280 14 2 39 7 54 11 16 3 38 7 50 9 12 2 54 8 92 13 39 6 104 14 145
18 41 3 77 8 79 10 6 5 471 -3 511 -10z m-1415 -1240 c303 -65 561 -220 725
-434 126 -165 215 -414 236 -662 3 -36 7 -77 8 -92 2 -16 1 -28 -3 -29 -3 0
-595 -1 -1315 -2 -1023 -2 -1310 1 -1313 10 -12 30 51 271 105 403 126 312
341 550 617 685 135 65 212 91 365 120 107 20 116 21 315 19 128 -1 203 -6
260 -18z"/>
</g>
</svg>
